<svg id="图层_2" data-name="图层 2" xmlns="http://www.w3.org/2000/svg" viewBox="0 0 512 512"><defs><style>.cls-1{fill:#bf7141;}.cls-2{fill:#fff;}</style></defs><rect class="cls-1" x="91.89" y="85.66" width="337.68" height="337.68" rx="27.83" transform="translate(-103.59 258.9) rotate(-45)"/><path class="cls-2" d="M261.91,151c-3.34,0-6.65.15-9.91.45V111.6l-99.09,78.87L252,249.61V211.17a49.28,49.28,0,1,1-32.27,74.16c-.12-.31-.29-.69-.49-1.09-2.16-4.41-2.35-8-8.05-13.21-12.43-11.34-21.86-13.11-33.51-8.74-18.31,6.86-20.41,23.32-17.49,35a54,54,0,0,0,2,6,109,109,0,0,0,99.76,64.69c60.2,0,109-48.56,109-108.45S322.11,151,261.91,151Z"/></svg>